<?xml version="1.0" encoding="UTF-8"?>
<svg version="1.1" viewBox="0 0 1600 504" width="1280" height="1280" xmlns="http://www.w3.org/2000/svg">
<path transform="translate(1186)" d="m0 0c0.495 0.99 0.495 0.99 1 2 0.562-0.162 1.12-0.325 1.7-0.492 2.43-0.537 4.57-0.636 7.06-0.64 0.961-0.00384 1.92-0.00768 2.91-0.0116 1.05 8.66e-4 2.1 0.00173 3.19 0.00263 1.68-0.00446 1.68-0.00446 3.39-9e-3 3.77-0.0087 7.53-0.0102 11.3-0.0117 2.7-0.00463 5.39-0.00963 8.09-0.015 7.33-0.0136 14.7-0.0196 22-0.024 4.58-0.00276 9.15-7e-3 13.7-0.0115 12.7-0.0122 25.3-0.0225 38-0.0259 0.81-2.2e-4 1.62-4.39e-4 2.46-6.65e-4 1.22-3.27e-4 1.22-3.27e-4 2.46-6.61e-4 1.65-4.43e-4 3.29-8.9e-4 4.94-0.00134 1.22-3.32e-4 1.22-3.32e-4 2.47-6.71e-4 13.2-0.00395 26.5-0.0214 39.7-0.0447 13.6-0.0237 27.2-0.0362 40.8-0.0373 7.63-9.18e-4 15.3-0.0067 22.9-0.0248 6.5-0.0154 13-0.0205 19.5-0.0123 3.32 0.00392 6.63 0.0013 9.95-0.0111 3.59-0.0126 7.18-0.00691 10.8 0.00358 1.05-0.00806 2.11-0.0161 3.2-0.0244 0.958 0.00659 1.92 0.0132 2.9 0.02 0.829-5.97e-4 1.66-0.00119 2.51-0.00181 2.65 0.465 3.55 1.23 5.12 3.37 0.0781 2.84 0.0781 2.84-1 6-2.06 2.09-3.95 3.8-6.25 5.56-1.15 0.916-2.3 1.83-3.45 2.75-0.56 0.446-1.12 0.892-1.7 1.35-2.36 1.96-4.47 4.13-6.6 6.33-1.27 1.29-2.54 2.58-3.81 3.88-0.605 0.616-1.21 1.23-1.83 1.87-1.97 1.89-3.98 3.67-6.05 5.45-4.68 4.07-9.02 8.45-13.4 12.9-15.6 15.8-15.6 15.8-22.6 16.1-1.55 0.00637-3.09 0.00719-4.64 0.00381-0.852 0.00212-1.7 0.00423-2.58 0.00641-2.87 0.00601-5.73 5e-3 -8.6 0.00413-2.05 0.00303-4.1 0.00655-6.15 0.0105-4.42 0.0079-8.85 0.013-13.3 0.0163-7 0.00591-14 0.0224-21 0.0413-2.4 0.00634-4.79 0.0127-7.19 0.019-1.8 0.00475-1.8 0.00475-3.64 0.00959-16.3 0.0421-32.6 0.075-48.9 0.0874-11 0.00839-22 0.0309-33 0.0694-5.82 0.0197-11.6 0.0322-17.4 0.0272-5.48-0.00466-11 0.00921-16.4 0.037-2 0.0069-4.01 0.00706-6.01-2e-4 -17.9-0.113-17.9-0.113-33.5 8.1-0.701 0.579-1.4 1.16-2.12 1.75-8.87 7.96-10.2 17.3-11.1 28.8-0.178 3.31-0.289 6.62-0.376 9.93-0.0187 0.651-0.0374 1.3-0.0566 1.97-0.684 24.6-0.374 49.1-0.281 73.7 0.0165 4.37 0.0309 8.74 0.0448 13.1 0.0512 16 0.109 32.1 0.172 48.1 0.0491 12.6 0.088 25.3 0.122 37.9 0.0355 13 0.0782 26.1 0.129 39.1 0.0281 7.29 0.0533 14.6 0.0707 21.9 0.0163 6.83 0.0429 13.7 0.0763 20.5 0.0107 2.5 0.018 5.01 0.0217 7.51 0.00557 3.42 0.0233 6.84 0.044 10.3-0.00125 0.987-0.00251 1.97-0.0038 2.99 0.0721 8.25 0.397 15.8 6.29 22 0.46 0.616 0.92 1.23 1.39 1.87 5.62 7.25 13.5 11.7 22.6 13.1 2.28 0.0904 4.57 0.127 6.85 0.127 1.02 0.00247 1.02 0.00247 2.06 0.00498 2.28 0.00432 4.57 0.00154 6.85-0.00117 1.65 0.0017 3.3 0.00385 4.96 0.00641 3.59 0.0046 7.19 0.00602 10.8 0.00503 5.85-0.00159 11.7 0.00361 17.5 0.00963 8.49 0.00811 17 0.0131 25.5 0.0163 13.4 0.00549 26.8 0.0224 40.2 0.0413 4.59 0.00636 9.17 0.0127 13.8 0.019 1.15 0.00158 2.29 0.00317 3.47 0.0048 13 0.0179 26.1 0.0342 39.1 0.0492 1.19 0.00138 2.39 0.00275 3.61 0.00417 19.3 0.022 38.7 0.0327 58 0.0402 19.8 0.00806 39.7 0.0313 59.5 0.068 12.3 0.0221 24.5 0.0317 36.8 0.0255 8.39-0.00317 16.8 0.0081 25.2 0.0309 4.84 0.0127 9.69 0.0188 14.5 0.00758 4.43-0.0101 8.86-0.00204 13.3 0.0209 1.61 0.00503 3.22 0.00321 4.82-0.00593 2.18-0.0114 4.35 0.00151 6.53 0.0208 1.21 9.77e-4 2.42 0.00195 3.67 0.00296 2.93 0.502 2.93 0.502 4.85 2.38 1.08 2.12 1.08 2.12 1.03 4.63-1.15 3.06-2.51 4.34-5 6.43-0.821 0.692-1.64 1.38-2.49 2.1-2.68 2.15-5.4 4.25-8.17 6.29-2.85 2.1-5.66 4.27-8.46 6.43-0.553 0.426-1.11 0.851-1.68 1.29-2.84 2.19-5.68 4.38-8.51 6.58-5.58 4.33-11.2 8.53-17 12.5-3.07 2.18-6.05 4.47-9.03 6.78-18.3 14.2-18.3 14.2-25.4 14.2-1.26 0.00446-2.52 0.00892-3.81 0.0135-1.41-8.93e-5 -2.82-2.79e-4 -4.23-5.59e-4 -1.49 0.0033-2.98 0.00702-4.46 0.0111-4.1 0.01-8.21 0.0137-12.3 0.0164-4.42 0.0039-8.84 0.0135-13.3 0.0222-10.7 0.0198-21.4 0.0298-32.1 0.0387-5.03 0.00438-10.1 0.00975-15.1 0.015-16.7 0.017-33.5 0.0315-50.2 0.0387-4.35 0.00191-8.69 0.00383-13 0.00579-1.62 7.26e-4 -1.62 7.26e-4 -3.27 0.00147-17.5 0.00829-35 0.0336-52.4 0.0661-17.9 0.0331-35.9 0.0511-53.8 0.0543-10.1 0.00216-20.2 0.0109-30.2 0.0365-8.59 0.0218-17.2 0.0297-25.8 0.02-4.38-0.00453-8.75-0.00274-13.1 0.0168-4.02 0.0177-8.03 0.0165-12.1 0.0011-1.44-0.00236-2.89 0.00186-4.33 0.0138-20.6 0.16-38-5.95-53.6-19.5-1.58-1.18-1.58-1.18-3.19-2.38-10.5-9.8-15.6-24.2-19.8-37.6-0.33-0.66-0.66-1.32-1-2-0.0953-1.79-0.126-3.58-0.126-5.36-0.00261-1.15-0.00522-2.29-0.0079-3.47 0.00223-1.27 0.00446-2.54 0.00676-3.85-0.00115-1.35-0.00274-2.71-0.00473-4.06-0.00419-3.73-0.0021-7.47 9.86e-4 -11.2 0.00225-4.02-0.00123-8.04-0.00398-12.1-0.00446-7.89-0.00348-15.8-5.87e-4 -23.7 0.00226-6.41 0.00257-12.8 0.00148-19.2-1.53e-4 -0.912-3.06e-4 -1.82-4.64e-4 -2.76-3.2e-4 -1.85-6.44e-4 -3.7-9.73e-4 -5.56-0.00286-17.4 4.32e-4 -34.8 0.0058-52.2 0.00446-14.9 0.0037-29.8-9.19e-4 -44.7-0.00536-17.3-0.00745-34.6-0.00439-51.9 3.19e-4 -1.85 6.33e-4 -3.7 9.43e-4 -5.55 1.54e-4 -0.91 3.09e-4 -1.82 4.68e-4 -2.76 8.62e-4 -6.4-5.91e-4 -12.8-0.00295-19.2-0.00281-7.81-0.00203-15.6 0.00328-23.4 0.00262-3.98 0.00368-7.96 3.51e-4 -11.9-3e-3 -3.65-0.0013-7.31 0.00398-11 0.00163-1.93-0.0016-3.86-0.00506-5.79 0.0367-16.5 1.01-29.2 12.5-41.9 1.47-1.33 2.96-2.66 4.47-3.95 4.15-3.55 7.77-7.2 11.3-11.4 1.7-1.88 3.42-3.47 5.36-5.09 5.65-4.88 10.8-10.2 16.1-15.5 5.97-6.05 11.9-12 18.4-17.4 1.78-1.85 1.78-1.85 3.12-3.56 3.89-4.67 7.6-8.36 12.9-11.4 0.33-0.66 0.66-1.32 1-2 1.98-0.727 3.98-1.4 6-2v-2h3v-2z" fill="#262929"/>
<path transform="translate(507 27.9)" d="m0 0c29.9-0.813 58.4 4.5 83.3 22.1v2c0.598 0.103 1.2 0.206 1.81 0.312 2.59 0.813 3.39 1.68 5.19 3.69 0.722 0.722 1.44 1.44 2.19 2.19 0.928 0.928 1.86 1.86 2.81 2.81 0.694 0.67 1.39 1.34 2.1 2.03 1.09 1.07 1.09 1.07 2.21 2.16 1.05 1.01 1.05 1.01 2.11 2.04 1.57 1.77 1.57 1.77 1.57 3.77 0.99 0.33 1.98 0.66 3 1 0.962 1.34 1.91 2.69 2.78 4.09 1.4 2.19 2.93 4.25 4.47 6.34 6.05 8.64 11.5 18.1 14.2 28.3 0.563 2.19 1.29 4.24 2.07 6.36 6.7 20.1 5.68 41.6 5.37 62.5-0.0553 3.97-0.0839 7.93-0.112 11.9-0.196 16.8-1.05 31.1-9.32 46.1-0.433 0.797-0.865 1.59-1.31 2.41-12.6 22.5-32.3 38.9-57.1 46.1-8.53 2.11-16.8 3.23-25.6 3.2-1.51 0.00574-1.51 0.00574-3.05 0.0116-3.34 0.0102-6.68 0.00636-10 0.00237-2.41 0.00435-4.81 0.00954-7.22 0.0155-5.84 0.012-11.7 0.0145-17.5 0.0122-4.75-0.00179-9.49-2.35e-5 -14.2 0.00422-0.677 5.95e-4 -1.35 0.00119-2.05 0.0018-1.38 0.00121-2.75 0.00243-4.13 0.00364-12.9 0.0109-25.7 0.00872-38.6 0.00262-11.8-0.00518-23.5 0.00611-35.3 0.0251-12.1 0.0194-24.2 0.0276-36.3 0.0239-6.79-0.00191-13.6 5.81e-4 -20.4 0.0147-6.38 0.0125-12.8 0.0107-19.1-0.00241-2.34-0.00237-4.69 3.94e-4 -7.03 0.00862-3.19 0.0104-6.38 0.00242-9.58-0.0103-0.931 0.00737-1.86 0.0147-2.82 0.0223-6.29-0.0529-9.71-1.1-14.3-5.65-2.19-3.44-2.75-5.67-2.75-9.75 1.56-3 1.56-3 4-6 0.449-0.567 0.897-1.13 1.36-1.72 3.04-3.73 6.34-6.82 10.1-9.88 2.16-1.9 3.8-4.15 5.59-6.4 2-1.67 4-3.33 6-5 0.605-0.779 1.21-1.56 1.83-2.36 13.5-16.4 36.8-25 57.2-27.6 4.56-0.262 9.11-0.271 13.7-0.255 2.01-0.00556 4.03-0.0111 6.04-0.0168 2.14-0.00431 4.28-0.00388 6.42-0.00218 4.49 0.00286 8.98-0.0116 13.5-0.029 12.8-0.0467 25.5-0.0709 38.3-0.0775 7.07-0.00377 14.1-0.022 21.2-0.0551 3.73-0.0168 7.45-0.0261 11.2-0.0171 27.2 0.681 27.2 0.681 51.7-9.55 1.23-0.87 1.23-0.87 2.48-1.76 9.42-7.49 14.7-18.7 17.5-30.2 1.15-11.6-1.64-21.8-7-32-0.866-1.73-0.866-1.73-1.75-3.5-5.21-8.79-12.9-13.8-22.2-17.5-0.617-0.254-1.23-0.509-1.87-0.771-8.59-3.07-17.4-2.67-26.4-2.65-1.84-0.00735-3.69-0.0159-5.53-0.0257-4.99-0.0221-9.97-0.0251-15-0.0233-4.18 1.2e-4 -8.37-0.00847-12.6-0.0168-9.89-0.0192-19.8-0.0221-29.7-0.0154-10.1 0.00661-20.3-0.0161-30.4-0.0533-8.75-0.0309-17.5-0.042-26.3-0.0382-5.21 0.00205-10.4-0.00311-15.6-0.0279-21.4-0.094-41.9-0.168-62.7 5.62-0.735 0.195-1.47 0.391-2.23 0.592-25.1 6.71-49.6 23.2-65.8 43.4-0.684 0.835-1.37 1.67-2.07 2.53-25.7 32.7-30.3 68.3-30.1 109 0.0166 3.46 0.0204 6.92 0.0255 10.4 0.0113 6.55 0.0319 13.1 0.0569 19.6 0.0445 11.7 0.078 23.3 0.1 35 0.00947 4.7 0.0282 9.41 0.0492 14.1 0.0428 12.4-0.015 24.9-0.327 37.3-0.0471 1.96-0.0821 3.91-0.117 5.87-0.528 18-6.8 32.8-19.6 45.4-1.44 1.44-2.89 2.89-4.33 4.34-2.36 2.36-4.73 4.72-7.11 7.07-3.49 3.45-6.89 6.91-10.1 10.6-3.73 4.34-7.8 8.24-12 12.1l-2.18 2.08c-12.2 11.5-12.2 11.5-18.3 11.4-5.26-0.265-9.11-2.19-13.1-5.62-2-3-2-3-2-6h-2c-0.588-65.6-0.588-65.6 1.38-96.4 0.0632-1.03 0.126-2.05 0.192-3.11 0.181-2.87 0.377-5.74 0.582-8.6 0.0553-0.825 0.111-1.65 0.168-2.5 0.349-4.44 1.14-8.2 2.68-12.4 0.281-1.41 0.522-2.83 0.711-4.25 0.108-0.766 0.216-1.53 0.328-2.32 0.111-0.802 0.222-1.6 0.336-2.43 1.04-7.06 2.51-13.8 4.61-20.6 1.05-3.51 1.88-7.03 2.7-10.6 4.54-18.8 11.4-37.2 19.3-54.8 0.286-0.643 0.571-1.29 0.865-1.95 18.3-41 43.7-80.8 76.1-112 0.866-0.866 1.73-1.73 2.62-2.62 3.12-3.12 6.25-6.25 9.38-9.38 0.767-0.784 1.53-1.57 2.32-2.38 2.89-2.84 5.9-5.5 8.99-8.12 0.605-0.516 1.21-1.03 1.83-1.56 1.95-1.65 3.9-3.3 5.85-4.94 0.645-0.543 1.29-1.09 1.95-1.65 9.63-8.07 19.6-15.4 30-22.4 1.04-0.692 1.04-0.692 2.1-1.4 10-6.69 20.3-12.9 30.9-18.6 0.794-0.433 1.59-0.866 2.41-1.31 12.9-7.02 26-13.2 39.6-18.7 0.813-0.336 1.63-0.672 2.46-1.02 22.9-9.41 46.5-15.7 70.7-20.4 1.26-0.251 1.26-0.251 2.55-0.508 19.5-3.85 39.1-5.51 59-6.14z" fill="#252828"/>
<path transform="translate(692)" d="m0 0c0.495 0.99 0.495 0.99 1 2 0.76-0.243 0.76-0.243 1.54-0.491 3.3-0.681 6.54-0.651 9.9-0.646 0.755-0.00265 1.51-0.0053 2.29-0.00804 2.54-0.00769 5.09-0.00825 7.63-0.00885 1.84-0.00401 3.67-0.00845 5.51-0.0133 5.06-0.012 10.1-0.0176 15.2-0.0222 5.45-0.00595 10.9-0.0176 16.3-0.0283 13.2-0.0245 26.3-0.0391 39.5-0.0521 3.72-0.00371 7.43-0.00768 11.1-0.0118 23.1-0.0252 46.1-0.0473 69.2-0.0597 5.34-0.00293 10.7-0.00589 16-0.00891 0.664-3.71e-4 1.33-7.42e-4 2.01-0.00112 21.5-0.0122 43.1-0.0431 64.6-0.0848 22.8-0.044 45.5-0.0697 68.3-0.0751 12.4-0.00342 24.8-0.0152 37.2-0.0481 10.6-0.0279 21.1-0.039 31.7-0.0278 5.39 0.00521 10.8 0.00218 16.2-0.0225 4.93-0.0223 9.86-0.0219 14.8-0.0028 1.79 0.00282 3.58-0.00291 5.37-0.0178 2.42-0.019 4.84-0.00742 7.27 0.0121 0.702-0.0128 1.4-0.0257 2.13-0.0389 3.64 0.0647 5.06 0.429 7.74 2.97 2.03 3.49 2.08 5.72 1.56 9.69-1.38 1.94-1.38 1.94-3 3h-2c-0.33 0.99-0.66 1.98-1 3-1.78 1.82-1.78 1.82-3.94 3.69l-2.15 1.89c-1.91 1.43-1.91 1.43-3.91 1.43-0.33 0.99-0.66 1.98-1 3-1.67 1.65-1.67 1.65-3.75 3.38-2.49 2.1-4.88 4.2-7.12 6.56-2.12 2.06-2.12 2.06-4.12 2.06-0.268 0.639-0.536 1.28-0.812 1.94-1.19 2.06-1.19 2.06-4.19 3.06-0.672 1.33-1.34 2.66-2 4-1.77 1.53-1.77 1.53-3.81 2.94-2.57 1.84-4.88 3.64-7.06 5.94-0.701 0.701-1.4 1.4-2.12 2.12h-2v2c-1.87 0.821-3.75 1.63-5.62 2.44-1.04 0.452-2.09 0.905-3.16 1.37-5.31 1.97-10.3 2.32-16 2.3-0.98-8.35e-4 -0.98-8.35e-4 -1.98-0.00169-2.18-0.00302-4.35-0.0132-6.53-0.0233-1.57-0.00356-3.13-0.00664-4.7-0.00929-3.37-0.00654-6.73-0.0161-10.1-0.0279-5.33-0.0183-10.7-0.0279-16-0.0359-15.2-0.0241-30.3-0.0599-45.5-0.105-8.38-0.0246-16.8-0.0419-25.1-0.0516-5.29-0.0065-10.6-0.022-15.9-0.0443-3.31-0.0118-6.62-0.0151-9.93-0.0161-1.52-0.00213-3.04-0.00765-4.56-0.017-17.2-0.77-17.2-0.77-32.5 5.56-8.61 10-7.58 22.6-7.53 35.1 0.00172 1.34 0.00298 2.68 0.00383 4.02 0.00356 3.65 0.0133 7.31 0.0242 11 0.0105 3.95 0.0151 7.9 0.0203 11.9 0.00969 6.84 0.0227 13.7 0.0377 20.5 0.0234 10.8 0.0364 21.6 0.0477 32.4 4e-3 3.7 0.00807 7.41 0.0122 11.1 0.00153 1.39 0.00153 1.39 0.00309 2.8 0.0117 10.5 0.0256 21 0.0404 31.6 0.00203 1.44 0.00203 1.44 0.0041 2.91 0.0222 15.6 0.0521 31.2 0.0839 46.8 0.0324 16 0.0533 32 0.0643 48 0.00722 9.87 0.0239 19.7 0.0528 29.6 0.019 6.76 0.0271 13.5 0.0266 20.3 6.3e-5 3.9 0.00502 7.8 0.0232 11.7 0.0165 3.57 0.0191 7.15 0.0108 10.7-8.42e-4 1.9 0.0131 3.8 0.0277 5.69-0.042 8.95-0.903 16.9-7.38 23.6-2 1.8-4.02 3.57-6.06 5.32-3.99 3.45-7.47 7.27-10.9 11.2-2.81 3.2-5.67 5.79-9 8.44-1.1 1.21-2.18 2.44-3.25 3.69-5.06 5.91-10.5 11.4-16.4 16.4-3.26 2.82-6.25 5.81-9.21 8.93-0.84 0.88-1.68 1.76-2.55 2.67-1.73 1.82-3.45 3.66-5.16 5.51-7.11 7.37-7.11 7.37-11.7 7.68-3.36-0.829-5.31-1.47-7.66-4-2.47-4.6-1.69-10.4-1.65-15.5-0.00433-1.41-0.0108-2.82-0.0194-4.23-0.017-3.88-0.0028-7.75 0.0165-11.6 0.0154-4.18 0.00203-8.36-0.00774-12.5-0.0145-8.19-0.00228-16.4 0.0191-24.6 0.024-9.54 0.0223-19.1 0.0197-28.6-0.00369-17 0.0171-34 0.0513-51 0.0331-16.5 0.0473-33 0.041-49.5-0.00676-18-0.00431-36 0.0154-53.9 0.00104-0.95 0.00208-1.9 0.00315-2.88 0.00209-1.91 0.0042-3.82 0.00633-5.73 0.0069-6.65 0.00756-13.3 0.00612-19.9-0.00144-8.1 0.00825-16.2 0.0319-24.3 0.0119-4.13 0.019-8.27 0.0132-12.4-0.00517-3.78 0.00351-7.57 0.0233-11.4 0.00699-2.02-7.11e-4 -4.04-0.00892-6.06 0.00906-1.2 0.0181-2.4 0.0274-3.64 0.00236-1.55 0.00236-1.55 0.00476-3.13 0.724-5.61 3.38-9.15 7.38-12.9 4.87-5.38 9.51-11 14.1-16.6 0.594-0.716 1.19-1.43 1.8-2.17 2.76-3.35 5.42-6.71 7.88-10.3 0.724-0.981 1.45-1.96 2.2-2.97h2c0.235-0.544 0.469-1.09 0.711-1.65 1.64-2.99 3.7-5.38 5.91-7.98 0.897-1.07 1.79-2.14 2.69-3.21 1.67-1.98 3.37-3.94 5.09-5.89 4.41-5.15 6.93-8.37 6.6-15.3-0.787-3.1-1.82-6.03-3-9-9.93-2.63-19.8-2.22-30-2.12-2.02 0.012-4.04 0.0231-6.06 0.0332-4.34 0.0232-8.67 0.0522-13 0.0853-6.86 0.0511-13.7 0.0813-20.6 0.107-19.5 0.076-39 0.165-58.5 0.309-10.8 0.079-21.6 0.133-32.3 0.159-5.7 0.0148-11.4 0.0428-17.1 0.102-5.36 0.0553-10.7 0.0782-16.1 0.0762-1.96 0.00512-3.93 0.0223-5.89 0.0524-2.68 0.0393-5.36 0.0354-8.05 0.0208-0.777 0.0218-1.55 0.0435-2.36 0.0659-3.33-0.0585-5.33-0.25-7.96-2.4-2.54-2.84-4.04-4.58-4.53-8.43 2.07-4.61 5.46-7.91 9.38-11.1h2c0.33-0.99 0.66-1.98 1-3 1.64-1.65 1.64-1.65 3.69-3.38 1.09-0.926 1.09-0.926 2.2-1.87 1.71-1.42 3.44-2.81 5.18-4.19 2.38-2.07 4.28-4.05 6.31-6.44 4.28-5.02 9.15-9.17 14.3-13.2 2.42-1.9 2.42-1.9 4.81-4.38 3.78-3.78 7.75-7 12.5-9.5h3v-2z" fill="#252828"/>
<path transform="translate(60)" d="m0 0c0.66 0.66 1.32 1.32 2 2 0.33-0.33 0.66-0.66 1-1 7.31-0.472 7.31-0.472 9.59 1.1 2.09 2.83 1.84 5.17 1.91 8.67 0.0176 0.685 0.0351 1.37 0.0532 2.08 0.0542 2.28 0.0866 4.57 0.118 6.85 0.0325 1.63 0.0659 3.25 0.1 4.88 0.344 17.5 0.379 35.1 0.382 52.6 0.0019 4.76 0.00946 9.53 0.0161 14.3 0.0134 10.3 0.0196 20.7 0.024 31 0.00279 6.47 0.00703 12.9 0.0115 19.4 0.0122 18 0.0225 35.9 0.0259 53.9 3.29e-4 1.71 3.29e-4 1.71 6.65e-4 3.46 3.27e-4 1.72 3.27e-4 1.72 6.61e-4 3.47 4.43e-4 2.32 8.9e-4 4.63 0.00134 6.95 2.21e-4 1.15 4.43e-4 2.3 6.71e-4 3.48 0.00397 18.7 0.0215 37.4 0.0447 56.1 0.0237 19.3 0.0362 38.5 0.0373 57.8 9.15e-4 10.8 0.00663 21.6 0.0248 32.4 0.0154 9.17 0.0205 18.3 0.0123 27.5-0.00391 4.67-0.00298 9.34 0.0111 14 0.0127 4.28 0.0115 8.56-5.91e-4 12.8-0.00196 1.54 0.00112 3.09 0.00984 4.63 0.0742 14-1.88 24.6-11.7 35.1-1.71 1.7-3.44 3.4-5.17 5.07-2.76 2.72-5.29 5.57-7.79 8.54-4.34 4.91-9.23 9.25-14.1 13.6-3.44 3.15-6.73 6.41-9.93 9.81-1.11 1.16-1.11 1.16-2.25 2.35-1.46 1.53-2.9 3.08-4.32 4.65-5.66 5.92-5.66 5.92-10.3 6.3-4.02-0.909-5.29-1.9-7.78-5.11-1.73-2.98-1.64-5.67-1.64-9.06-0.00607-0.717-0.0121-1.43-0.0184-2.17-0.0142-2.4 0.00718-4.81 0.0284-7.21-0.0029-1.74-0.00799-3.48-0.0151-5.22-0.0131-4.78 0.00496-9.56 0.0281-14.3 0.0195-5.16 0.0102-10.3 0.00441-15.5-0.00682-10.1 0.0129-20.2 0.0412-30.3 0.0318-11.8 0.0362-23.5 0.0392-35.3 0.00607-21 0.0352-42 0.0781-63 0.0416-20.4 0.0699-40.7 0.082-61.1 7.48e-4 -1.25 0.0015-2.51 0.00227-3.8 0.00297-5.04 0.00591-10.1 0.00879-15.1 0.0127-21.8 0.0365-43.5 0.0616-65.3 0.00398-3.52 0.0077-7.04 0.0114-10.6 0.013-12.3 0.0294-24.7 0.055-37 0.0106-5.1 0.0197-10.2 0.0246-15.3 0.00456-4.67 0.0137-9.34 0.0267-14 0.00389-1.69 0.00614-3.38 0.00656-5.07 8.47e-4 -2.3 0.0078-4.59 0.0163-6.89 0.00233-1.28 0.00466-2.55 0.00706-3.87 0.454-12.9 5.12-21.1 14-30.4 2.2-2.28 2.2-2.28 4.18-4.86 1.84-2.26 3.68-4.06 5.91-5.93 4.49-3.85 8.54-7.88 12.4-12.4 2.94-3.4 6.08-6.29 9.49-9.2 2.62-2.3 5.13-4.68 7.63-7.11 0.844-0.819 1.69-1.64 2.56-2.48 1.93-2.25 2.64-3.44 3-6.33z" fill="#262929"/>
<path transform="translate(1168,409)" d="m0 0c0.516 0.66 1.03 1.32 1.56 2 0.804 0.99 1.61 1.98 2.44 3 0.463 0.628 0.926 1.26 1.4 1.9 5.66 7.21 13.5 11.7 22.6 13.1 2.28 0.0904 4.57 0.127 6.85 0.127 0.68 0.00164 1.36 0.00329 2.06 0.00498 2.28 0.00432 4.57 0.00154 6.85-0.00117 1.65 0.0017 3.3 0.00385 4.96 0.00641 3.59 0.0046 7.19 0.00602 10.8 0.00503 5.85-0.00159 11.7 0.00361 17.5 0.00963 8.49 0.00811 17 0.0131 25.5 0.0163 13.4 0.00549 26.8 0.0224 40.2 0.0413 4.59 0.00636 9.17 0.0127 13.8 0.019 1.15 0.00158 2.29 0.00317 3.47 0.0048 13 0.0179 26.1 0.0342 39.1 0.0492 1.19 0.00138 2.39 0.00275 3.61 0.00417 19.3 0.022 38.7 0.0327 58 0.0402 19.8 0.00806 39.7 0.0313 59.5 0.068 12.3 0.0221 24.5 0.0317 36.8 0.0255 8.39-0.00317 16.8 0.0081 25.2 0.0309 4.84 0.0127 9.69 0.0188 14.5 0.00758 4.43-0.0101 8.86-0.00204 13.3 0.0209 1.61 0.00503 3.22 0.00321 4.82-0.00593 2.18-0.0114 4.35 0.00151 6.53 0.0208 1.21 9.77e-4 2.42 0.00195 3.67 0.00296 2.93 0.502 2.93 0.502 4.85 2.38 1.08 2.12 1.08 2.12 1.03 4.63-1.15 3.06-2.51 4.34-5 6.43-0.821 0.692-1.64 1.38-2.49 2.1-2.68 2.15-5.4 4.25-8.17 6.29-2.85 2.1-5.66 4.27-8.46 6.43-0.553 0.426-1.11 0.851-1.68 1.29-2.84 2.19-5.68 4.38-8.51 6.58-5.58 4.33-11.2 8.53-17 12.5-3.07 2.18-6.05 4.47-9.03 6.78-18.3 14.2-18.3 14.2-25.4 14.2-1.26 0.00384-2.52 0.00768-3.82 0.0116-1.41-7.8e-4 -2.82-0.00166-4.24-0.00263-1.49 0.00258-2.98 0.00559-4.47 9e-3 -4.11 0.00809-8.22 0.00986-12.3 0.0106-4.43 0.00185-8.85 0.00939-13.3 0.0161-9.69 0.0136-19.4 0.0196-29.1 0.024-6.05 0.00276-12.1 7e-3 -18.2 0.0115-16.8 0.0122-33.5 0.0225-50.3 0.0259-1.07 2.2e-4 -2.15 4.39e-4 -3.25 6.65e-4 -1.08 2.18e-4 -2.15 4.37e-4 -3.26 6.61e-4 -2.18 4.43e-4 -4.36 8.9e-4 -6.54 0.00134-1.08 2.21e-4 -2.16 4.43e-4 -3.28 6.71e-4 -17.5 0.00394-35 0.0214-52.5 0.0447-18 0.0237-35.9 0.0362-53.9 0.0373-10.1 9.16e-4 -20.2 0.00665-30.3 0.0248-8.59 0.0154-17.2 0.0205-25.8 0.0123-4.38-0.0039-8.76-0.00302-13.1 0.0111-4.02 0.0128-8.04 0.0115-12.1-5.91e-4 -1.45-0.00195-2.89 0.00108-4.34 0.00984-9.15 0.0519-17.4-0.917-26.2-3.38 0.33-2.64 0.66-5.28 1-8h6v-3h13v2h7v-7c3.94-0.029 7.87-0.0468 11.8-0.0625 1.12-0.00838 2.24-0.0168 3.39-0.0254 1.61-0.00483 1.61-0.00483 3.25-0.00977 0.99-0.00524 1.98-0.0105 3-0.0159 2.54 0.114 2.54 0.114 5.54 1.11 4.01 0.352 8.03 0.422 12.1 0.549 1.31 0.042 2.62 0.0841 3.97 0.127 19 0.563 38.1 0.494 57.2 0.523 7.16 0.0109 14.3 0.0311 21.5 0.0531 20.3 0.0613 40.6 0.116 61 0.149 11.3 0.0184 22.6 0.0473 33.8 0.088 5.94 0.021 11.9 0.0365 17.8 0.0388 5.57 0.00215 11.1 0.0181 16.7 0.0444 2.04 0.00716 4.07 0.00931 6.11 0.0059 18.6-0.0262 18.6-0.0262 27.6 2.79 4.78 1.33 8.68-0.109 13.1-1.93 3.04-1.21 5.42-1.59 8.69-1.5 5.89 0.0872 11.7-0.165 17.6-0.441 1.58-0.0715 1.58-0.0715 3.19-0.145 2.56-0.116 5.13-0.235 7.69-0.355 0.33 1.32 0.66 2.64 1 4h2v2c1.49-0.495 1.49-0.495 3-1 1.52-0.0677 3.04-0.085 4.56-0.0625 0.785 0.00902 1.57 0.018 2.38 0.0273 0.679 0.0116 1.36 0.0232 2.06 0.0352 2.62 0 3.54-0.952 5.62-2.5 0.632-0.464 1.26-0.928 1.91-1.41 0.482-0.361 0.964-0.722 1.46-1.09-0.66 1.65-1.32 3.3-2 5 1.32-0.33 2.64-0.66 4-1v-2c1.65 0.66 3.3 1.32 5 2v-2c0.598-0.268 1.2-0.536 1.81-0.812 2.23-1.08 2.23-1.08 3.81-2.81l1.38-1.38h2c0.227-0.598 0.454-1.2 0.688-1.81 1.65-2.75 3.51-3.71 6.31-5.19-0.33-0.33-0.66-0.66-1-1-0.664 0.566-1.33 1.13-2.01 1.71-1.32 1.1-1.32 1.1-2.68 2.22l-2.64 2.21c-2.69 1.86-4.46 2.48-7.68 2.85 0.419-4.89 2.36-6.83 6-10 2.28-1.87 4.48-3.42 7-5 0.99 0.33 1.98 0.66 3 1 0.598-0.804 1.2-1.61 1.81-2.44 2.19-2.56 2.19-2.56 5.19-3.56-0.0722-0.603-0.144-1.21-0.219-1.83-0.0928-0.799-0.186-1.6-0.281-2.42-0.0928-0.789-0.186-1.58-0.281-2.39-0.219-2.36-0.219-2.36-0.219-6.36h11v3h-3v2c2.97 0.33 5.94 0.66 9 1v-5h2c-0.351-1.09-0.701-2.19-1.06-3.31-0.938-3.69-0.938-3.69 0.0625-6.69-1.27 0.0174-1.27 0.0174-2.57 0.0352-8.54 0.0657-16.9-0.31-25.4-1.04v-1c-0.732-0.00136-1.46-0.00271-2.22-0.00411-43.4-0.0807-86.8-0.172-130-0.276-5.21-0.0125-10.4-0.025-15.6-0.0373-1.56-0.0037-1.56-0.0037-3.14-0.00747-16.8-0.0397-33.6-0.0725-50.4-0.103-17.2-0.0311-34.5-0.0698-51.7-0.115-10.6-0.0279-21.3-0.0499-31.9-0.0645-7.29-0.0106-14.6-0.0284-21.9-0.0519-4.21-0.0133-8.41-0.0235-12.6-0.025-3.86-0.00147-7.71-0.0122-11.6-0.0299-2.04-0.00708-4.09-0.00453-6.13-0.00153-10.5-0.0634-20.8-0.159-29.7-6.28-0.691-0.456-1.38-0.913-2.09-1.38-4.44-3.07-6.78-5.53-8.91-10.6-0.66-0.33-1.32-0.66-2-1-0.688-1.94-0.688-1.94-1-4 0.33-0.66 0.66-1.32 1-2z" fill="#252628"/>
<path transform="translate(1464,2)" d="m0 0c1.98 0.99 1.98 0.99 4 2-0.175 4.24-0.74 5.74-3.77 8.82-1.15 0.931-2.31 1.85-3.48 2.75-1.15 0.916-2.3 1.83-3.45 2.75-0.56 0.446-1.12 0.892-1.7 1.35-2.36 1.96-4.47 4.13-6.6 6.33-1.27 1.29-2.54 2.58-3.81 3.88-0.605 0.616-1.21 1.23-1.83 1.87-1.97 1.89-3.98 3.67-6.05 5.45-4.68 4.07-9.02 8.45-13.4 12.9-15.6 15.8-15.6 15.8-22.6 16.1-1.55 0.00637-3.09 0.00719-4.64 0.00381-0.852 0.00212-1.7 0.00423-2.58 0.00641-2.87 0.00601-5.73 5e-3 -8.6 0.00413-2.05 0.00303-4.1 0.00655-6.15 0.0105-4.42 0.0079-8.85 0.013-13.3 0.0163-7 0.00591-14 0.0224-21 0.0413-2.4 0.00634-4.79 0.0127-7.19 0.019-1.8 0.00475-1.8 0.00475-3.64 0.00959-16.3 0.0421-32.6 0.075-48.9 0.0874-11 0.00839-22 0.0309-33 0.0694-5.82 0.0197-11.6 0.0322-17.4 0.0272-5.48-0.00466-11 0.00921-16.4 0.037-2 0.0069-4.01 0.00706-6.01-2e-4 -17.9-0.113-17.9-0.113-33.5 8.1-0.701 0.579-1.4 1.16-2.12 1.75-2.62 2.35-4.61 4.2-6.31 7.31-1.56 2.38-1.56 2.38-3.75 3.19-0.598 0.0619-1.2 0.124-1.81 0.188v-7h2v-2h2v-6c-0.99 2.31-1.98 4.62-3 7-0.99-0.33-1.98-0.66-3-1 0.0722-0.592 0.144-1.18 0.219-1.79 0.48-4.09 0.914-8.08 0.781-12.2 2.89-1.48 5.72-2.89 8.75-4.06 2.4-0.832 2.4-0.832 4.25-2.94v3c3.07-0.776 3.07-0.776 5-3v3c0.33-0.99 0.66-1.98 1-3 1.85-0.73 1.85-0.73 4.06-1.19 1.1-0.238 1.1-0.238 2.22-0.48 0.566-0.11 1.13-0.219 1.71-0.332v-3l2-1c-0.66-0.33-1.32-0.66-2-1v-3c5.04-1.65 9.48-2.27 14.8-2.18 1.15 0.00608 1.15 0.00608 2.33 0.0123 1.7 0.00973 3.4 0.0239 5.1 0.0419 4.91 0.0504 9.82 0.0632 14.7 0.0823 1.09 0.00508 2.18 0.0102 3.31 0.0154 15 0.0616 30.1-0.0547 45.1-0.156 1.52-0.01 3.05-0.0201 4.57-0.0301 6.97-0.046 13.9-0.0932 20.9-0.142 7.97-0.056 15.9-0.108 23.9-0.156 6.26-0.0383 12.5-0.0802 18.8-0.125 3.7-0.0263 7.4-0.0512 11.1-0.0722 4.09-0.0233 8.18-0.0541 12.3-0.0856 1.8-0.00863 1.8-0.00863 3.63-0.0174 10.5 0.34 10.5 0.34 20.5-2.19v2c1.65-0.66 3.3-1.32 5-2v2h2v2h6c0.33-1.65 0.66-3.3 1-5h8c0.33-1.32 0.66-2.64 1-4 2.31-0.66 4.62-1.32 7-2v-2h3v-2h2v-2c1.65-0.33 3.3-0.66 5-1v-3c0.99 0.33 1.98 0.66 3 1-0.33 0.66-0.66 1.32-1 2 0.66 0.33 1.32 0.66 2 1-1.14 0.897-1.14 0.897-2.31 1.81-2.04 1.66-3.89 3.29-5.69 5.19 0.557-0.289 1.11-0.578 1.69-0.875 2.4-1.17 4.83-2.16 7.31-3.12v-4h2c0.0786-0.61 0.157-1.22 0.238-1.85 1.02-2.89 2.23-3.27 4.95-4.59 3.05-1.57 5.67-3.11 8.25-5.38 2.56-2.19 2.56-2.19 4.56-2.19 0.289-0.578 0.577-1.16 0.875-1.75 0.371-0.742 0.743-1.48 1.12-2.25 0.309-0.66 0.619-1.32 0.938-2 1.16-2.18 2.54-4.06 4.06-6z" fill="#252628"/>
<path transform="translate(633,230)" d="m0 0c0.606 11.3-8.42 21.2-15.5 29.3-15.6 17.1-38 28.2-61.1 29.9-2.66 0.0706-5.32 0.085-7.98 0.074-1.01 0.00383-2.01 0.00765-3.05 0.0116-3.34 0.0102-6.68 0.00636-10 0.00237-2.41 0.00435-4.81 0.00954-7.22 0.0155-5.84 0.012-11.7 0.0145-17.5 0.0122-4.75-0.00179-9.49-2.35e-5 -14.2 0.00422-0.677 5.95e-4 -1.35 0.00119-2.05 0.0018-1.38 0.00121-2.75 0.00243-4.13 0.00364-12.9 0.0109-25.7 0.00872-38.6 0.00262-11.8-0.00518-23.5 0.00611-35.3 0.0251-12.1 0.0194-24.2 0.0276-36.3 0.0239-6.79-0.00191-13.6 5.81e-4 -20.4 0.0147-6.38 0.0125-12.8 0.0107-19.1-0.00241-2.34-0.00237-4.69 3.94e-4 -7.03 0.00862-3.19 0.0104-6.38 0.00242-9.58-0.0103-1.4 0.0111-1.4 0.0111-2.82 0.0223-6.29-0.0529-9.71-1.1-14.3-5.65-2.19-3.44-2.75-5.67-2.75-9.75 1.56-3 1.56-3 4-6 0.472-0.602 0.944-1.2 1.43-1.82 2.84-3.51 5.42-6.21 9.57-8.18h2c-0.33 1.65-0.66 3.3-1 5-1.98 0.495-1.98 0.495-4 1v4c3.82-0.275 3.82-0.275 7-2 1.82-0.203 1.82-0.203 4.12-0.25 0.745-0.0258 1.49-0.0516 2.26-0.0781 2.62 0.328 2.62 0.328 5.8 1.83 3.87 1.69 7.21 1.87 11.5 1.86 0.738 0.00186 1.48 0.00372 2.24 0.00563 2.46 0.00259 4.91-0.0162 7.37-0.035 1.77-0.00249 3.54-0.00363 5.31-0.00354 3.8-0.0027 7.61-0.0149 11.4-0.0345 6.04-0.0312 12.1-0.0413 18.1-0.0489 9.59-0.0145 19.2-0.0434 28.8-0.0782 17.1-0.0617 34.2-0.0999 51.3-0.132 5.98-0.0117 12-0.0299 17.9-0.0534 18.8-0.0712 37.5-0.0358 56.3 0.806 5.2 0.229 10.4 0.271 15.6 0.219v6c2.27-0.141 4.54-0.288 6.81-0.438 1.26-0.0812 2.53-0.162 3.83-0.246 3.35-0.188 3.35-0.188 6.36-1.32 0.33 1.32 0.66 2.64 1 4-5.57 1.59-10.2 2.21-16 2v2c11.9-0.942 11.9-0.942 22-7h2c0.34-0.928 0.34-0.928 0.688-1.88 1.72-2.78 3.22-3.22 6.31-4.12h3c0.33-0.66 0.66-1.32 1-2h2c0.413-0.433 0.825-0.866 1.25-1.31 2.66-2.56 5.99-4.69 9.75-4.69 0.0619-0.722 0.124-1.44 0.188-2.19 1.08-3.74 2.86-5.34 5.81-7.81 2.31-0.812 2.31-0.812 4-1v-2c-0.66-0.33-1.32-0.66-2-1 2.39-1.89 4.07-3.02 7-4 0.33-0.66 0.66-1.32 1-2-0.66-0.33-1.32-0.66-2-1 2-2 2-2 4-3-0.33-0.99-0.66-1.98-1-3 3.88-4 3.88-4 5-4z" fill="#242527"/>
<path transform="translate(701,1)" d="m0 0h441c0.33 0.66 0.66 1.32 1 2-3.48 2.14-6.21 2.21-10.2 2.12-1.08-0.018-2.16-0.0361-3.27-0.0547l-2.48-0.0703v2c3.63-0.33 7.26-0.66 11-1v2c-3.98 0.339-7.96 0.67-11.9 1-1.68 0.143-1.68 0.143-3.38 0.289-6.25 0.513-12.4 0.817-18.7 0.711v-1c-6.36-0.107-12.6 0.00552-19 0.497-7.68 0.531-15.3 0.638-23 0.617-1.43-2.83e-4 -2.86-1.22e-4 -4.29 4.43e-4 -3.83 2.83e-4 -7.66-0.00554-11.5-0.0126-4.02-0.00631-8.05-0.00684-12.1-0.00803-7.6-0.00309-15.2-0.0113-22.8-0.0213-8.66-0.0112-17.3-0.0167-26-0.0217-17.8-0.0104-35.6-0.028-53.4-0.0503v2c-12 0.94-23.9 1.11-36 1v2h31v2c-12 0.94-23.9 1.11-36 1v2c-2.12 0.0539-4.25 0.0927-6.38 0.125-1.18 0.0232-2.37 0.0464-3.59 0.0703-3.04-0.195-3.04-0.195-5.04-2.2h-4v2h-13c-0.33-1.32-0.66-2.64-1-4-2.48-0.0269-4.96-0.0468-7.44-0.0625-0.707-0.00838-1.41-0.0168-2.14-0.0254-1.81-0.00865-3.61 0.0357-5.42 0.0879-0.33 0.33-0.66 0.66-1 1-11.6 1.37-23.3 1.11-35 1v-3h-62v2c-3.62 1.21-6.93 1.11-10.7 1.06-0.702-0.00451-1.4-0.00902-2.13-0.0137-1.73-0.0118-3.46-0.0297-5.19-0.0488v-3c-0.764 0.0232-1.53 0.0464-2.32 0.0703-8.77 0.148-17-0.731-25.7-2.07-0.33-1.32-0.66-2.64-1-4 1.46 0.141 2.92 0.288 4.38 0.438 1.22 0.122 1.22 0.122 2.46 0.246 2.16 0.316 2.16 0.316 4.16 1.32 1.41 0.151 2.83 0.249 4.25 0.316 0.837 0.0419 1.67 0.0838 2.54 0.127 0.876 0.0393 1.75 0.0786 2.65 0.119 0.872 0.0432 1.74 0.0864 2.64 0.131 3.31 0.16 6.6 0.307 9.92 0.307 0.33-0.66 0.66-1.32 1-2-0.753 0.0116-1.51 0.0232-2.28 0.0352-6.48 0.055-12.9-0.0426-19.4-0.348-0.695-0.0225-1.39-0.045-2.11-0.0681-1.97-0.108-1.97-0.108-5.21-0.619-0.66-0.99-1.32-1.98-2-3-2.05-1.19-2.05-1.19-4-2 1.32-0.33 2.64-0.66 4-1v-2z" fill="#292A2B"/>
<path transform="translate(369 99.8)" d="m0 0c1.26-0.00419 2.53-0.00839 3.83-0.0127 1.4 0.00548 2.79 0.0112 4.19 0.017 1.47-0.00107 2.95-0.00301 4.42-0.00575 4-0.00485 8 0.00281 12 0.013 4.18 0.00878 8.37 0.00702 12.6 0.00664 7.03 9.37e-4 14.1 0.00962 21.1 0.0233 8.13 0.0157 16.3 0.021 24.4 0.0203 7.81-6.1e-4 15.6 0.00449 23.4 0.0128 3.33 0.00353 6.65 0.00536 9.98 0.00589 3.92 1e-3 7.83 0.0071 11.7 0.0172 1.44 0.00292 2.88 0.00415 4.32 0.00357 1.96-4.9e-4 3.92 0.00578 5.88 0.0124 1.1 0.00168 2.2 0.00335 3.33 0.00508 2.7 0.129 2.7 0.129 5.7 1.13 0.133 0.71 0.266 1.42 0.402 2.15 0.177 0.919 0.353 1.84 0.535 2.79 0.174 0.917 0.348 1.83 0.527 2.78 0.312 2.24 0.312 2.24 1.54 3.29 2.1 0 4.21-0.00321 6.31-0.0234 2.87 0.025 5.7 0.178 8.56 0.398 0.905 0.0696 1.81 0.139 2.74 0.211 2.38 0.414 2.38 0.414 5.38 2.41 0.66-0.66 1.32-1.32 2-2 0.619 0.804 1.24 1.61 1.88 2.44 1.87 2.6 1.87 2.6 4.12 3.56v1c1.65 0.33 3.3 0.66 5 1v3c1.98 0.99 1.98 0.99 4 2v2h2c2 3 2 3 2 6 0.99 0.33 1.98 0.66 3 1 4.09 5.91 4.09 5.91 3.75 9.94-0.371 1.02-0.371 1.02-0.75 2.06-1.13-1.7-2.24-3.42-3.25-5.19-6.37-10.2-13.4-17.3-24.8-21.8-0.604-0.25-1.21-0.499-1.83-0.756-8.61-3.08-17.4-2.68-26.4-2.66-1.84-0.00735-3.69-0.0159-5.53-0.0257-4.99-0.0221-9.97-0.0251-15-0.0233-4.18 1.2e-4 -8.37-0.00847-12.6-0.0168-9.89-0.0192-19.8-0.0221-29.7-0.0154-10.1 0.00661-20.3-0.0161-30.4-0.0533-8.75-0.0309-17.5-0.042-26.3-0.0382-5.21 0.00205-10.4-0.00311-15.6-0.0279-21.4-0.094-41.9-0.168-62.7 5.62-1.1 0.293-1.1 0.293-2.23 0.592-25.1 6.71-49.6 23.2-65.8 43.4-0.708 0.882-1.42 1.76-2.14 2.67-5.74 7.39-10.4 15.1-14.9 23.3-1.32-0.33-2.64-0.66-4-1 0.248-1.58 0.248-1.58 0.5-3.19 0.396-3.02 0.592-5.78 0.5-8.81-1.62 2.57-2.04 3.68-1.62 6.75 0.206 0.743 0.412 1.49 0.625 2.25-1.81 1.06-1.81 1.06-4 2-0.99-0.33-1.98-0.66-3-1 1.98-0.495 1.98-0.495 4-1-0.0722-0.603-0.144-1.21-0.219-1.83-0.0928-0.799-0.186-1.6-0.281-2.42-0.0928-0.789-0.186-1.58-0.281-2.39-0.219-2.36-0.219-2.36-0.219-6.36h4c1.96-3.51 2.96-7.13 4-11h2v-3h2v-2c0.66 0.33 1.32 0.66 2 1-1.1 5.71-2.62 10.7-5 16v2c1.9-2.97 3.35-5.51 4-9h2c-0.124-1.01-0.248-2.02-0.375-3.06 0.496-5.2 2.75-7.38 6.38-10.9-0.66-0.33-1.32-0.66-2-1 0.969-0.289 1.94-0.577 2.94-0.875 3.17-0.767 3.17-0.767 4.06-3.12h-6v-2h2c0.33-0.66 0.66-1.32 1-2v2h2c-0.495-2.48-0.495-2.48-1-5-0.99 0.495-0.99 0.495-2 1-0.33 0.99-0.66 1.98-1 3h-2v2c-1.05 0.577-2.1 1.16-3.19 1.75-3.19 1.82-6.01 3.87-8.81 6.25 0-4.93 3.68-7.59 7-11 3.6-3.36 7.38-6.49 11.2-9.62 2.76-2.33 5.26-4.81 7.81-7.38 5.94-5.66 12.1-11 18.5-16.1 0.599-0.485 1.2-0.971 1.82-1.47 4.33-3.4 4.33-3.4 7.68-3.4-1.48 4.68-1.48 4.68-4.12 6.31-0.619 0.227-1.24 0.454-1.88 0.688 0.495 0.99 0.495 0.99 1 2 0.563-0.326 1.13-0.652 1.71-0.988 2.53-1.12 4.23-1.25 6.98-1.2 1.18 0.00967 1.18 0.00967 2.39 0.0195 1.93 0.168 1.93 0.168 2.93 1.17 1.67 0.0406 3.33 0.0427 5 0 0.33-0.66 0.66-1.32 1-2h2v-2h32v2h8v-3h-2c-0.33 0.66-0.66 1.32-1 2v-2c-0.99-0.33-1.98-0.66-3-1 1.98-0.66 3.96-1.32 6-2v-2h-2c-0.33 0.66-0.66 1.32-1 2v-2c-0.99-0.33-1.98-0.66-3-1 1.69-1.69 3.93-1.33 6.25-1.5 3.67-0.277 7.15-0.765 10.8-1.5 1.67-0.037 3.33-0.0476 5 0v3h3v-3c3.45-2.1 6.15-2.25 10.2-2.25z" fill="#242627"/>
<path transform="translate(1113,38)" d="m0 0c0.99 0.33 1.98 0.66 3 1v2h-2c-0.268 0.639-0.536 1.28-0.812 1.94-1.19 2.06-1.19 2.06-4.19 3.06-0.672 1.33-1.34 2.66-2 4-1.77 1.53-1.77 1.53-3.81 2.94-2.57 1.84-4.88 3.64-7.06 5.94-0.701 0.701-1.4 1.4-2.12 2.12h-2v2c-1.87 0.821-3.75 1.63-5.62 2.44-1.04 0.452-2.09 0.905-3.16 1.37-5.31 1.97-10.3 2.32-16 2.3-0.98-8.35e-4 -0.98-8.35e-4 -1.98-0.00169-2.18-0.00302-4.35-0.0132-6.53-0.0233-1.57-0.00356-3.13-0.00664-4.7-0.00929-3.37-0.00654-6.73-0.0161-10.1-0.0279-5.33-0.0183-10.7-0.0279-16-0.0359-15.2-0.0241-30.3-0.0599-45.5-0.105-8.38-0.0246-16.8-0.0419-25.1-0.0516-5.29-0.0065-10.6-0.022-15.9-0.0443-3.31-0.0118-6.62-0.0151-9.93-0.0161-1.52-0.00213-3.04-0.00765-4.56-0.017-18.3-0.638-18.3-0.638-33.9 7.22-1.03 1.65-2.04 3.31-3 5h-3c0.66-1.98 1.32-3.96 2-6h-3c-0.0811-1.94-0.139-3.87-0.188-5.81-0.0348-1.08-0.0696-2.16-0.105-3.27 0.293-2.92 0.293-2.92 1.45-4.79 2.59-1.58 4.53-1.42 7.53-1.31 1.49 0.0406 1.49 0.0406 3.01 0.082 1.14 0.0522 1.14 0.0522 2.3 0.105v-2c3.17-1.59 6.64-1.38 10.1-1.56 0.754-0.0432 1.51-0.0864 2.29-0.131 1.86-0.106 3.73-0.207 5.59-0.307 0.33-1.65 0.66-3.3 1-5 1.13-0.124 2.27-0.248 3.44-0.375 1.18-0.206 2.35-0.413 3.56-0.625 0.33-0.66 0.66-1.32 1-2h11v2h41v-2h17v2h39v-2h2v2h3v-2c2 0 2 0 3.62 1.5 0.454 0.495 0.908 0.99 1.38 1.5 0.606-0.217 1.21-0.433 1.84-0.656 6.23-2.07 11.6-2.72 18.2-2.34 0.33 1.65 0.66 3.3 1 5h2c0.99 1.48 0.99 1.48 2 3h2v-3c0.759-0.0142 1.52-0.0284 2.3-0.043 2.98-0.143 5.78-0.346 8.7-0.957 1.94-2.39 1.94-2.39 3-5 2.62-0.688 2.62-0.688 5-1 0.33-0.66 0.66-1.32 1-2 1.98 0.33 3.96 0.66 6 1-0.66 0.99-1.32 1.98-2 3 0.99 0.33 1.98 0.66 3 1v-4h4v-4c0.722 0.0619 1.44 0.124 2.19 0.188 3.35-0.223 4.98-1.48 7.81-3.19z" fill="#252628"/>
<path transform="translate(1191,1)" d="m0 0c33.9-0.0457 67.7-0.081 102-0.102 3.99-0.0025 7.99-0.00509 12-0.00773 0.795-5.25e-4 1.59-0.00105 2.41-0.00159 12.9-0.00871 25.8-0.0245 38.7-0.0429 13.2-0.0187 26.4-0.0298 39.6-0.0339 8.16-0.00275 16.3-0.0114 24.5-0.0277 6.25-0.0118 12.5-0.0131 18.7-0.0104 2.57-5.53e-4 5.14-0.00456 7.71-0.0122 3.49-0.00987 6.99-0.00759 10.5-0.0021 1.03-0.00583 2.06-0.0117 3.12-0.0177 0.931 0.00398 1.86 0.00796 2.82 0.0121 0.807-7.59e-4 1.61-0.00152 2.45-0.0023 1.95 0.248 1.95 0.248 3.95 2.25-1.32 0.99-2.64 1.98-4 3 0.33 0.66 0.66 1.32 1 2-1.13 0.0297-1.13 0.0297-2.29 0.0601-3.49 0.0964-6.97 0.206-10.5 0.315-1.19 0.0309-2.37 0.0619-3.6 0.0938-13.2-0.319-13.2-0.319-24.7 4.53-2.06 0.411-2.06 0.411-4.58 0.633-0.914 0.0838-1.83 0.168-2.77 0.254-1.44 0.118-1.44 0.118-2.9 0.238-0.942 0.0864-1.88 0.173-2.86 0.262-4.64 0.41-9.23 0.723-13.9 0.613v2c-2.99 0.872-5.64 1.11-8.75 1.06-0.799-0.00902-1.6-0.018-2.42-0.0273-0.603-0.0116-1.21-0.0232-1.83-0.0352-0.33-0.99-0.66-1.98-1-3h-6c-0.33 0.99-0.66 1.98-1 3h-16v-3h16v-2h-11v-3h-108v2c4.29 0.33 8.58 0.66 13 1v2h-18c-0.33 0.99-0.66 1.98-1 3h-11v-3c-0.767 0.0232-1.53 0.0464-2.32 0.0703-11 0.179-21.8-0.896-32.7-2.07-0.33-0.99-0.66-1.98-1-3h-3v-2h3c-0.66-0.598-1.32-1.2-2-1.81-2-2.19-2-2.19-2-5.19z" fill="#292A2B"/>
<path transform="translate(1168,409)" d="m0 0c0.516 0.66 1.03 1.32 1.56 2 0.804 0.99 1.61 1.98 2.44 3 0.463 0.628 0.926 1.26 1.4 1.9 5.66 7.21 13.5 11.7 22.6 13.1 2.28 0.0904 4.57 0.127 6.85 0.127 0.68 0.00164 1.36 0.00329 2.06 0.00498 2.28 0.00432 4.57 0.00154 6.85-0.00117 1.65 0.0017 3.3 0.00385 4.96 0.00641 3.59 0.0046 7.19 0.00602 10.8 0.00503 5.85-0.00159 11.7 0.00361 17.5 0.00963 8.49 0.00811 17 0.0131 25.5 0.0163 13.4 0.00549 26.8 0.0224 40.2 0.0413 4.59 0.00636 9.17 0.0127 13.8 0.019 1.15 0.00158 2.29 0.00317 3.47 0.0048 13 0.0179 26.1 0.0342 39.1 0.0492 1.19 0.00138 2.39 0.00275 3.61 0.00417 19.3 0.022 38.7 0.0327 58 0.0402 19.8 0.00806 39.7 0.0313 59.5 0.068 12.3 0.0221 24.5 0.0317 36.8 0.0255 8.39-0.00317 16.8 0.0081 25.2 0.0309 4.84 0.0127 9.69 0.0188 14.5 0.00758 4.43-0.0101 8.86-0.00204 13.3 0.0209 1.61 0.00503 3.22 0.00321 4.82-0.00593 2.18-0.0114 4.35 0.00151 6.53 0.0208 1.21 9.77e-4 2.42 0.00195 3.67 0.00296 2.93 0.502 2.93 0.502 4.84 2.53 0.359 0.65 0.718 1.3 1.09 1.97-50.6 0.0458-101 0.081-152 0.102-5.98 0.0025-12 0.00509-17.9 0.00773-1.19 5.25e-4 -2.38 0.00105-3.61 0.00159-19.3 0.0087-38.5 0.0245-57.8 0.0429-19.8 0.0187-39.5 0.0298-59.3 0.0339-12.2 0.00274-24.4 0.0114-36.6 0.0277-8.37 0.0106-16.7 0.0138-25.1 0.0112-4.83-0.00128-9.65 6.7e-4 -14.5 0.0114-4.42 0.00977-8.85 0.0102-13.3 0.00339-1.6-8.41e-4 -3.19 0.00166-4.79 0.00797-24.1 0.0896-24.1 0.0896-33.2-6.25-0.691-0.456-1.38-0.913-2.09-1.38-4.44-3.07-6.78-5.53-8.91-10.6-0.66-0.33-1.32-0.66-2-1-0.688-1.94-0.688-1.94-1-4 0.33-0.66 0.66-1.32 1-2z" fill="#000100"/>
<path transform="translate(883,424)" d="m0 0c0.75 2.19 0.75 2.19 1 5-2.54 4.2-6.37 7.15-10.1 10.3-3.99 3.45-7.47 7.27-10.9 11.2-2.81 3.2-5.67 5.79-9 8.44-1.1 1.21-2.18 2.44-3.25 3.69-5.06 5.91-10.5 11.4-16.4 16.4-3.26 2.82-6.25 5.81-9.21 8.93-0.84 0.88-1.68 1.76-2.55 2.67-1.73 1.82-3.45 3.66-5.16 5.51-7.11 7.37-7.11 7.37-11.7 7.68-4.64-1.14-5.91-2-8.69-5.91-0.702-4.25-0.581-8.44-0.488-12.7 0.00707-1.24 0.0141-2.47 0.0214-3.75 0.0232-3.27 0.0681-6.55 0.124-9.82 0.0513-3.34 0.0736-6.69 0.0992-10 0.0551-6.55 0.139-13.1 0.244-19.7h1c0.33-1.65 0.66-3.3 1-5h1c0.171 5.49 0.331 11 0.482 16.5 0.0526 1.86 0.108 3.72 0.166 5.58 0.396 12.7 0.227 25.3-0.648 38 2.97-0.495 2.97-0.495 6-1-1.32-0.66-2.64-1.32-4-2 1.98-0.495 1.98-0.495 4-1-0.00524-0.638-0.0105-1.28-0.0159-1.93-0.0927-13.1 0.0244-26 1.02-39.1 0.33 1.32 0.66 2.64 1 4h4c0.33-1.32 0.66-2.64 1-4v4c0.577 0.144 1.15 0.289 1.75 0.438l2.25 0.562c0.701 0.103 1.4 0.206 2.12 0.312 1.88 0.688 1.88 0.688 3.12 2.75 0.247 0.639 0.495 1.28 0.75 1.94h-2c0.66 1.65 1.32 3.3 2 5-0.33 0.33-0.66 0.66-1 1 0.33 0.99 0.66 1.98 1 3h4c0.33-0.99 0.66-1.98 1-3 1.31-1.69 1.31-1.69 3-3h4v-2h2v2l2 1c-0.619 0.248-1.24 0.495-1.88 0.75-2.54 1.49-2.87 2.65-4.12 5.25-2.12 1.75-2.12 1.75-4 3 2.86-0.395 3.78-0.703 5.56-3.06 0.474-0.639 0.949-1.28 1.44-1.94h3c0.25-0.696 0.5-1.39 0.758-2.11 1.42-3.29 3.16-6.14 5.12-9.14 0.678-1.06 1.36-2.11 2.05-3.2 2.07-2.55 2.07-2.55 4.33-3.41 0.575-0.0464 1.15-0.0928 1.74-0.141v-4h4c0.495-1.49 0.495-1.49 1-3 0.99-0.33 1.98-0.66 3-1 1.42-1.77 1.42-1.77 2-4-0.912-2.12-0.912-2.12-2-4 7.2-8.4 7.2-8.4 12.5-9h3.5v-2c2.08-0.553 3.84-1 6-1z" fill="#252628"/>
<path transform="translate(5,61)" d="m0 0h2c-0.875 5.88-0.875 5.88-2 7-3.23 19.1-2.31 39.2-2.32 58.5-0.00375 4.58-0.0189 9.17-0.0326 13.8-0.0221 7.91-0.0372 15.8-0.0474 23.7-0.0147 11.4-0.0402 22.9-0.0683 34.3-0.0453 18.6-0.082 37.1-0.113 55.7-0.0303 18-0.0646 36-0.104 54.1-0.00246 1.11-0.00492 2.23-0.00746 3.38-0.0124 5.59-0.0248 11.2-0.0373 16.8-0.103 46.3-0.193 92.5-0.273 139h-1c-0.0229-49.8-0.0405-99.6-0.0511-149-0.00125-5.88-0.00255-11.8-0.00387-17.6-2.62e-4 -1.17-5.25e-4 -2.34-7.95e-4 -3.55-0.00435-19-0.0122-37.9-0.0214-56.9-0.00935-19.4-0.0149-38.9-0.0169-58.3-0.00137-12-0.00571-24-0.0138-36-0.00528-8.23-0.00688-16.5-0.00558-24.7 6.41e-4 -4.75-3.5e-4 -9.5-0.0057-14.2-0.00487-4.35-0.00511-8.7-0.00169-13 4.22e-4 -1.57-8.46e-4 -3.14-0.00398-4.72-0.0381-20.3-0.0381-20.3 4.12-27.5z" fill="#252628"/>
<path transform="translate(60.4 443)" d="m0 0c0.866 0.309 1.73 0.619 2.62 0.938-1.37 3.16-1.99 3.99-5 6 0.99 0.33 1.98 0.66 3 1 0.66-1.65 1.32-3.3 2-5h2v-2h3c0.495 1.49 0.495 1.49 1 3-0.977 1.55-0.977 1.55-2.62 3.31-0.959 1.04-0.959 1.04-1.94 2.1-0.804 0.853-1.61 1.71-2.44 2.59-1.06 1.15-2.13 2.31-3.19 3.46-6.81 7.39-13.7 14.6-21.1 21.4-0.55 0.502-1.1 1-1.67 1.52-1.34 1.22-2.68 2.44-4.02 3.67-0.495-1.49-0.495-1.49-1-3-2.78 1.39-2.98 3.16-4 6-1.46-4.52-0.27-7.52 1-12h4v-3c0.99 0.33 1.98 0.66 3 1-0.33 0.33-0.66 0.66-1 1h2v-3-3c1.98-0.33 3.96-0.66 6-1-0.66-0.33-1.32-0.66-2-1v-4h2v-5h4v-3c0.99-0.33 1.98-0.66 3-1 0.33 0.99 0.66 1.98 1 3 1.65-1.65 3.3-3.3 5-5-0.33-0.66-0.66-1.32-1-2-0.66 1.32-1.32 2.64-2 4-0.66-1.76-0.66-1.76-1-4 2.18-4.25 4.51-7.03 9.38-6.94z" fill="#252628"/>
<path transform="translate(549,207)" d="m0 0 2 1c-1.83 1.16-3.69 2.27-5.56 3.38-1.55 0.94-1.55 0.94-3.13 1.9-13.7 6.34-31.9 3.97-46.6 3.9-3.55-0.0164-7.09-0.0204-10.6-0.0255-6.7-0.0113-13.4-0.032-20.1-0.0569-12-0.0446-24-0.0776-36-0.1-4.2-0.00835-8.41-0.0223-12.6-0.041-3.23-0.0132-6.47-0.02-9.7-0.0281-1.15-0.00674-2.3-0.0135-3.49-0.0204-7.79-0.011-15.5 0.217-23 2.22-0.81 0.213-1.62 0.427-2.46 0.646-0.813 0.221-1.63 0.442-2.46 0.67-0.832 0.217-1.66 0.434-2.52 0.658-4.51 1.16-4.51 1.16-8.74 3.05-1.92 0.859-1.92 0.859-4.92-0.141 14.7-6.6 28.1-9.15 44.1-9.14 2.01-0.00533 4.03-0.0107 6.04-0.0162 2.16-0.00518 4.31-0.00811 6.47-0.0106 4.51-0.00595 9.02-0.0225 13.5-0.0413 1.55-0.00634 3.1-0.0127 4.65-0.019 0.776-0.00317 1.55-0.00633 2.35-0.00959 10.5-0.0419 21-0.075 31.5-0.0874 7.09-0.00843 14.2-0.0311 21.3-0.0694 3.74-0.0196 7.49-0.0322 11.2-0.0272 23.7 0.563 23.7 0.563 46.1-6.27 1.35-0.645 1.35-0.645 2.72-1.3z" fill="#000100"/>
<path transform="translate(1084,13)" d="m0 0v1c-8.82 0.894-17.5 1.14-26.4 1.11-1.4-2.83e-4 -2.8-1.22e-4 -4.2 4.43e-4 -3.76 2.84e-4 -7.53-0.00555-11.3-0.0126-3.95-0.0063-7.9-0.00684-11.8-0.00803-7.46-0.0031-14.9-0.0113-22.4-0.0213-8.5-0.0112-17-0.0167-25.5-0.0217-17.5-0.0104-34.9-0.028-52.4-0.0503v-2c7.94-0.873 15.8-1.13 23.7-1.1 1.84 0.00219 1.84 0.00219 3.71 0.00443 2.64 0.00379 5.28 0.00936 7.92 0.0181 4.18 0.0137 8.37 0.0194 12.5 0.0241 8.88 0.011 17.8 0.0306 26.6 0.051 9.59 0.0221 19.2 0.0426 28.8 0.0534 4.15 0.00495 8.3 0.0148 12.4 0.0284 3.2 0.00928 6.4 0.012 9.59 0.0158 1.7 0.00775 1.7 0.00775 3.44 0.0157 5.76 3.81e-4 11.4-0.228 17.1-0.99 3.01-0.177 5.38 0.661 8.1 1.88z" fill="#2A2B2C"/>
<path transform="translate(1227,487)" d="m0 0c29-0.0233 58-0.041 87-0.0518 2.68-0.00102 5.36-0.00206 8.04-0.00312 0.666-2.62e-4 1.33-5.25e-4 2.02-7.95e-4 10.8-0.00435 21.6-0.0122 32.4-0.0214 11.1-0.00935 22.1-0.0148 33.2-0.0169 6.22-0.00131 12.4-0.00438 18.6-0.0116 5.85-0.00677 11.7-0.00888 17.5-0.00738 2.15-2.76e-4 4.3-0.00227 6.45-0.0061 2.93-0.00495 5.86-0.00379 8.78-0.00105 1.28-0.00437 1.28-0.00437 2.59-0.00883 3.63 0.00922 6.85 0.204 10.4 1.13 6.08 0.351 12-0.11 18-1-3.66 3.66-7.87 4.13-12.9 4.19-5.17-0.109-10.3-0.501-15.3-1.71-3.85-0.648-7.65-0.628-11.5-0.633-0.878-0.00494-1.76-0.00988-2.66-0.015-2.94-0.0154-5.88-0.0237-8.83-0.0321-2.11-0.00958-4.22-0.0196-6.33-0.03-5.73-0.027-11.5-0.0481-17.2-0.068-5.98-0.0219-12-0.0493-18-0.0761-11.3-0.0499-22.7-0.0949-34-0.138-12.9-0.0494-25.8-0.104-38.7-0.16-26.5-0.114-53.1-0.221-79.6-0.323v-1z" fill="#262929"/>
<path transform="translate(745,10)" d="m0 0c2.48 0.99 2.48 0.99 5 2v-2h62v3h-69c0.66-0.33 1.32-0.66 2-1v-2z" fill="#262929"/>
<path transform="translate(1094,435)" d="m0 0c2.53 2.96 3.41 5.1 3.94 8.94 0.794 4.52 2.17 6.49 5.06 10.1 1.53 3.94 2.79 7.95 4 12h3c0.33 2.31 0.66 4.62 1 7 1.48 0.495 1.48 0.495 3 1-0.66 0.99-1.32 1.98-2 3-6.94-7.66-11-15.6-15-25-0.449-0.969-0.897-1.94-1.36-2.94-2.32-5.21-3.09-8.49-1.64-14.1z" fill="#252628"/>
<path transform="translate(1195,8)" d="m0 0c13.8-0.369 27.3 0.769 41 2v3c-9.25 0.185-18.2 0.323-27.3-1.5-3.6-0.671-7.19-0.927-10.8-1.16-0.615-0.113-1.23-0.227-1.86-0.344-0.33-0.66-0.66-1.32-1-2z" fill="#262929"/>
<path transform="translate(698,5)" d="m0 0h5v4c0.707-0.172 1.41-0.344 2.14-0.521 3.03-0.507 5.54-0.417 8.6-0.139 1.6 0.14 1.6 0.14 3.23 0.283 1.1 0.104 2.21 0.208 3.34 0.314 1.12 0.0999 2.24 0.2 3.4 0.303 2.76 0.247 5.53 0.5 8.29 0.76-0.33 0.99-0.66 1.98-1 3-19.9 0.395-19.9 0.395-28-3-0.33 0.66-0.66 1.32-1 2-4-4.75-4-4.75-4-7z" fill="#262929"/>
<path transform="translate(197,424)" d="m0 0h2l1 2c0.99-0.33 1.98-0.66 3-1v2h-2v2h-2c-0.124 0.681-0.248 1.36-0.375 2.06-0.206 0.969-0.412 1.94-0.625 2.94-0.248 1.2-0.495 2.39-0.75 3.62-1.25 3.38-1.25 3.38-3.69 5.38-2.56 1-2.56 1-5.56 0 0.505-0.387 1.01-0.773 1.53-1.17 0.65-0.521 1.3-1.04 1.97-1.58 0.65-0.51 1.3-1.02 1.97-1.55 1.98-1.82 1.98-1.82 1.53-5.7 0.654-2 1.32-4 2-6v-3z" fill="#262929"/>
<path transform="translate(1419,8)" d="m0 0c-8.98 5.24-18.1 3.89-28 3v-2c3.17-0.17 6.33-0.335 9.5-0.5 1.33-0.0715 1.33-0.0715 2.69-0.145 5.28-0.272 10.5-0.405 15.8-0.355z" fill="#262929"/>
<path transform="translate(845,457)" d="m0 0c0.33 0.66 0.66 1.32 1 2-1.33 2.6-1.33 2.6-3.25 5.62-0.624 1-1.25 2.01-1.89 3.04-0.614 0.771-1.23 1.54-1.86 2.34h-3c-0.289 0.619-0.577 1.24-0.875 1.88-1.12 2.12-1.12 2.12-3.12 4.12-2.12-0.375-2.12-0.375-4-1 0.887-0.722 1.77-1.44 2.69-2.19 4.68-3.92 8.05-7.08 10.3-12.8 2.12-1.81 2.12-1.81 4-3z" fill="#262929"/>
<path transform="translate(863,439)" d="m0 0c0 3 0 3-2 6-0.99 0.33-1.98 0.66-3 1-0.33 0.66-0.66 1.32-1 2h-4v4c-1.32 0.33-2.64 0.66-4 1 0.66-1.32 1.32-2.64 2-4-0.66-0.66-1.32-1.32-2-2 0.99-0.33 1.98-0.66 3-1 0.33-0.66 0.66-1.32 1-2h1c3.13-1.45 6.06-3.2 9-5z" fill="#262929"/>
<path transform="translate(1506,487)" d="m0 0c0.848 0.153 1.7 0.307 2.57 0.465 3.44 0.537 6.83 0.85 10.3 1.1 1.15 0.0838 2.3 0.168 3.49 0.254 0.869 0.0606 1.74 0.121 2.63 0.184-0.33 0.66-0.66 1.32-1 2h-2c-0.33 0.66-0.66 1.32-1 2-2.13-0.308-4.25-0.622-6.38-0.938-1.78-0.261-1.78-0.261-3.59-0.527-3.04-0.535-3.04-0.535-5.04-1.54v-3z" fill="#262929"/>
<path transform="translate(224,159)" d="m0 0c0 3 0 3-1.81 5.25-2.38 2.73-2.38 2.73-3.69 6.44-1.5 3.31-1.5 3.31-3.69 4.75-0.598 0.186-1.2 0.371-1.81 0.562-0.33-0.99-0.66-1.98-1-3 0.988-1.63 0.988-1.63 2.53-3.36 0.817-0.933 0.817-0.933 1.65-1.88 0.581-0.643 1.16-1.29 1.76-1.95 0.865-0.981 0.865-0.981 1.75-1.98 1.43-1.62 2.87-3.23 4.31-4.83z" fill="#181A1A"/>
<path transform="translate(1552,468)" d="m0 0c0.33 0.99 0.66 1.98 1 3-0.908 0.577-1.82 1.15-2.75 1.75-3.22 2.09-3.22 2.09-5.5 4.5-0.578 0.577-1.15 1.15-1.75 1.75h-2c-0.66 1.32-1.32 2.64-2 4-0.99-0.33-1.98-0.66-3-1 4.94-5.23 10.2-9.7 16-14z" fill="#262929"/>
<path transform="translate(581,278)" d="m0 0c-1.78 2.23-2.72 2.94-5.56 3.51-0.95 0.058-1.9 0.116-2.88 0.176-0.947 0.0657-1.89 0.131-2.87 0.199-2.23 0.0938-4.46 0.113-6.69 0.113v-2c0.843-0.133 1.69-0.266 2.55-0.402 1.1-0.177 2.19-0.353 3.32-0.535 1.64-0.261 1.64-0.261 3.3-0.527 6.5-1.23 6.5-1.23 8.82-0.535z" fill="#262929"/>
<path transform="translate(902,62)" d="m0 0c-0.99 0.495-0.99 0.495-2 1v2c-1.07 0.0206-2.14 0.0413-3.25 0.0625-3.68 0.528-3.68 0.528-5.11 2.56-0.974 1.74-1.82 3.56-2.64 5.38h-1c0.61-6.47 0.61-6.47 2.38-8.88 3.7-2.56 7.29-2.21 11.6-2.12z" fill="#262929"/>
<path transform="translate(206,181)" d="m0 0c0.66 0.33 1.32 0.66 2 1-0.733 1.49-1.49 2.96-2.25 4.44-0.418 0.824-0.835 1.65-1.27 2.5-1.48 2.07-1.48 2.07-3.66 2.85-0.905 0.106-0.905 0.106-1.83 0.215 1.49-4.59 3.85-7.44 7-11z" fill="#1D1F20"/>
<path transform="translate(1418,10)" d="m0 0c-1.76 2.18-2.69 2.94-5.48 3.51-1.34 0.087-1.34 0.087-2.71 0.176-1.35 0.0986-1.35 0.0986-2.73 0.199-0.687 0.0374-1.37 0.0748-2.08 0.113-0.33-0.66-0.66-1.32-1-2 1.77-0.531 3.54-1.05 5.31-1.56 0.986-0.29 1.97-0.58 2.99-0.879 2.7-0.559 2.7-0.559 5.7 0.441z" fill="#2A2B2C"/>
<path transform="translate(877,429)" d="m0 0v3c-1.64 1.42-1.64 1.42-3.81 2.75-0.708 0.449-1.42 0.897-2.14 1.36-2.04 0.891-2.04 0.891-5.04-0.109h2c0.33-1.65 0.66-3.3 1-5 5.75-2 5.75-2 8-2z" fill="#262929"/>
<path transform="translate(1590,430)" d="m0 0c2.81-0.25 2.81-0.25 6 0 1.88 2 1.88 2 3 4h-8c-0.33-1.32-0.66-2.64-1-4z" fill="#000303"/>
<path transform="translate(1535,482)" d="m0 0c0.33 0.99 0.66 1.98 1 3-0.639-0.186-1.28-0.371-1.94-0.562-1.02-0.217-1.02-0.217-2.06-0.438-0.33 0.33-0.66 0.66-1 1-0.66 0.144-1.32 0.289-2 0.438-0.66 0.186-1.32 0.371-2 0.562-0.33 0.66-0.66 1.32-1 2 0.573-2.87 0.861-3.86 3-6 3.56-1.22 3.56-1.22 6 0z" fill="#262929"/>
<path transform="translate(1165,127)" d="m0 0h1v7h-1v-7z" fill="#010506"/>
</svg>
